<?xml version="1.0" encoding="UTF-8"?>
<svg id="Layer_1" data-name="Layer 1" xmlns="http://www.w3.org/2000/svg" version="1.1" viewBox="0 0 128 40">
  <defs>
    <style>
      .cls-1 {
        fill: #000;
      }

      .cls-1, .cls-2 {
        stroke-width: 0px;
      }

      .cls-3 {
        fill: none;
        stroke: #231f20;
        stroke-linecap: round;
        stroke-linejoin: round;
        stroke-width: 2px;
      }

      .cls-2 {
        fill: #39b54a;
      }
    </style>
  </defs>
  <g>
    <polygon class="cls-2" points="123.7 35.7 109 36 94 36.4 79 36.5 64 35.5 49 35.6 34 35.3 19 35.6 3.9 36.1 3.9 20 4.4 4.4 19 4 34 3.4 49 4.2 64 4.6 79 4.3 94 3.4 109 3.8 123.8 4.1 123.9 20 123.7 35.7"/>
    <polygon class="cls-3" points="123.7 35.7 109 36 94 36.4 79 36.5 64 35.5 49 35.6 34 35.3 19 35.6 3.9 36.1 3.9 20 4.4 4.4 19 4 34 3.4 49 4.2 64 4.6 79 4.3 94 3.4 109 3.8 123.8 4.1 123.9 20 123.7 35.7"/>
  </g>
  <g>
    <path class="cls-1" d="M43.1,13.7c-.5.5-1.1.6-1.7.6s-.4,0-.5,0c-.4.2-1,.2-1.3.2s-.5,0-.7,0h-.2c-.4,0-1.2.2-1.9.2s-.4,0-.5,0c0,.5,0,1.7-.1,2.4.2,0,.3,0,.5,0,.4,0,.8,0,1.3,0,.5,0,.7-.3,1.2-.3.7,0,1.3,0,2.1,0,.7,1,.5.9.6,2.4-.7.3-1.2.4-1.6.4s-.7,0-1,0c-.7,0-1.3.4-2,.4s-1.3,0-1.4,0c0,.3-.1,1-.1,1.6s0,1,0,1.4h.2c1.6,0,2.8-.6,4.6-.6s1.3,0,2.2.4c.2.5.3.7.3,1.2s0,.7-.3,1.2c-.4.4-.8.5-1.2.5-.7,0-1.3-.2-1.9-.2-1.1,0-2,0-3,.6-.3-.1-.5-.2-.7-.2-.4,0-.8.2-1.4.2-1.1,0-1.7-.6-2.2-1.6v-1.3c0-.8.2-1.6.2-2.5s0-1.8,0-2.7c.3-.7.3-2.2.3-3,0-1.2.6-3,1.2-3.4.2,0,.3-.1.3-.3,1.1.3,1.7.4,2,.4,1,0,3.1-.4,4.2-.4s1.6.2,2.5.7v1.8Z"/>
    <path class="cls-1" d="M52.4,23.4v-.5c0-.3,0-.5,0-.6,0-.9,0-1.6-.2-1.8,0-1.3-.4-1.7-.7-1.7s-.4.1-.6.3l-.3.3c-.7.6-1.2,2-1.5,3.5,0,.2,0,.3,0,.4,0,.2,0,.4-.2.6-.1.6-.2,1.4-.5,2.1-.5.1-.8.2-1,.2s-.4,0-.9-.2c0,0,0,0,0,0-.6-.8-.8-1.3-.8-2s.1-1.4.1-1.9,0-.8-.2-1.3c.2-1,.3-2,.3-2.5s-.2-.7-.2-1.3.2-.8.5-1.1h.1c.2-.4.5-.5.9-.5.5,0,1.1.4,1.4.6v2c.4-.8.8-1.3,1.2-1.6.2-.2.4-.5.6-.5,0,0,.1,0,.2-.1.4-.4,1.2-.5,1.7-.5.9,0,1.9.7,2.3,1.2,0,.4.8,1.3,1,2.1,0,.3,0,.6,0,2.9s0,1.9.5,2.7c0,.6-.3.8-.5,1l-.2.2c-.2.4-.5.7-1.2.7-1.5,0-1.6-1.6-1.6-2.7ZM48.6,23.5c.1-.6.3-1.6.5-2.2-.2,0-.3,1-.5,1.3v.8Z"/>
    <path class="cls-1" d="M61.1,26.7c-.5-.9-.7-.8-.9-1.4,0-.3-.6-1.1-.9-2.3,0-.2,0-.4-.2-.7-.5-1.5-1.1-2.2-1.3-3.7-.5-.3-.8-.8-.8-1.6s.4-1,.6-1.3l.5-.3c.8,0,1,.1,1.9.4.1.9.5,1.7.8,2.6.5,1.2.5,1.4.5,1.6s0,.2,0,.3c.1,0,.2.2.2.4s0,.3,0,.4c.3.5.5.7.6,1,.4-.9.5-1.4.8-1.8v-.6c.3-.3.4-.7.4-.8s.5-1.2.8-1.6c.6-.9.5-1.7,1.6-1.7s1.9.5,1.9,2.4c-.8.5-.5,1-1.3,1.3-.1.6-.5,1.1-.9,1.5v1.2c-.5,0-.5.4-.6.6-.2.7-.5,2-1.4,2.6,0,0,0,.1,0,.2,0,.5-.4,1.1-.7,1.3,0,0-.4.2-.5.2-.2,0-.6-.2-1.3-.3Z"/>
    <path class="cls-1" d="M72,15.6c.1.4.3,1,.3,1.6,0,1.6-.2,3.4-.2,4.5s.3,1.6.3,2.2c0,1.1-1,1.5-1.8,1.5s-.7-.3-.9-.6c-.2-.1-.4-.2-.6-.3.2-3.1,0-6.4.2-9.2.6-.4.9-.5,1.3-.5.5,0,.9.2,1.4.5l.2.3ZM73,12.1c-.3.7-1,1.5-2.2,1.5-.6-.4-1.4-.7-1.4-1.4,0-1.1,1-1.8,1.9-1.8s1.5.4,1.8,1.5v.3Z"/>
    <path class="cls-1" d="M83.3,24.9c-.4-.4-1.2-1.1-1.2-1.7-.1-.1-.4-.3-.4-.5-.6.2-.6.9-1.2,1.7-.2,0-.4,0-.4,0-.4,0-.7.7-1.4.7s-.2,0-.4-.1c-.4.3-.6.4-.9.5-1.6,0-1.7-2-2.5-2.9,0-2.4.8-3.7,1.8-5.3.7-.3,1.2-.9,1.5-1.6.9-.5,1.5-.9,2.1-.9s1.3.3,2,.7c.5,0,.7-.2.9-.3h.5c0,.4.4.6.9.9,0,.2,0,.6.3.6-.5,1.7-.6,2.5-.6,3.5s0,1.2.4,1.8c.3.6,2.1,1.1,2.1,2.1s-.9,1.7-1.5,1.7-1.4-.5-2-.8ZM80.7,17.6c-.5.3-1.2.4-1.2.5,0,.5-.4.5-.7.5,0,0,0,.2,0,.3,0,.2-.2.5-.5.7,0,.2-.2.5-.3.6,0,.6-.2.7-.2,1l.3.8c.5,0,1.3-1.3,1.9-1.4.2-.4,1-.8,1-1.1,0,0,0-.2,0-.3,0-.5.3-1.2.3-1.5s-.2-.1-.6-.1Z"/>
    <path class="cls-1" d="M89,26.5c-.2,0-.4-.2-.4-.4,0,0-.1-.2-.2-.3,0-.7,0-1.3,0-1.5,0-1.2-.3-1.9-.3-3.6s.1-1.5.1-1.6c0-.4,0-.6,0-1.4s0-1.1.7-1.8c.9,0,.6.2,1.9.2.1.4.2.7.2,1.1s0,.8,0,1.2,0,.7,0,.8c.6-1.6,1.9-3,2.9-3s1,.2,1.2.2c.2,0,.8.2.9.2.8,0,1.5.6,1.5,1.2s-.2.9-.7,1.5c-.5,0-1.1-.1-1.5-.1-.9,0-1.8.4-2.1,1.4-.3.2-1.4,1.6-1.8,2.4,0,.6,0,1.1,0,1.8s0,1.2,0,1.5h-.3c-.2.2-.4.5-1,.5s-.9,0-1-.3Z"/>
  </g>
</svg>